<?xml version="1.0" standalone="yes"?>
<svg width="490" height="490">
<path style="fill:#ffffff; stroke:none;" d="M0 0L0 490L490 490L490 0L0 0z"/>
<path style="fill:#010101; stroke:none;" d="M40 40L40 110L110 110L110 40L40 40M120 40L120 70L130 70L130 90L120 90L120 130L110 130L110 120L100 120L100 130L90 130L90 120L60 120L60 130L40 130L40 150L50 150L50 140L60 140L60 180L40 180L40 190L60 190L60 210L70 210L70 220L90 220L90 240L80 240L80 250L70 250L70 230L60 230L60 220L50 220L50 210L40 210L40 230L60 230L60 240L50 240L50 250L40 250L40 260L50 260L50 270L40 270L40 300L50 300L50 310L70 310L70 320L80 320L80 330L70 330L70 340L60 340L60 350L70 350L70 360L60 360L60 370L110 370L110 360L90 360L90 350L70 350L70 340L100 340L100 350L110 350L110 340L120 340L120 330L150 330L150 340L160 340L160 360L120 360L120 380L130 380L130 370L150 370L150 380L140 380L140 390L130 390L130 400L120 400L120 430L130 430L130 440L150 440L150 430L130 430L130 420L140 420L140 410L130 410L130 400L150 400L150 410L160 410L160 380L170 380L170 400L190 400L190 410L180 410L180 420L200 420L200 430L190 430L190 440L200 440L200 450L210 450L210 410L220 410L220 440L230 440L230 420L240 420L240 410L250 410L250 430L240 430L240 450L250 450L250 440L260 440L260 450L270 450L270 430L260 430L260 420L270 420L270 400L280 400L280 420L290 420L290 430L280 430L280 450L290 450L290 440L320 440L320 450L340 450L340 440L320 440L320 420L330 420L330 430L350 430L350 420L370 420L370 430L360 430L360 440L370 440L370 450L410 450L410 440L420 440L420 450L430 450L430 440L440 440L440 420L450 420L450 410L440 410L440 400L420 400L420 390L430 390L430 380L450 380L450 350L430 350L430 340L450 340L450 330L430 330L430 320L420 320L420 310L410 310L410 300L420 300L420 290L440 290L440 300L450 300L450 290L440 290L440 280L420 280L420 270L430 270L430 260L450 260L450 240L420 240L420 250L400 250L400 260L420 260L420 270L410 270L410 280L420 280L420 290L380 290L380 310L370 310L370 300L360 300L360 280L370 280L370 270L380 270L380 280L400 280L400 270L380 270L380 260L390 260L390 250L360 250L360 240L370 240L370 230L390 230L390 220L400 220L400 240L410 240L410 230L430 230L430 210L440 210L440 220L450 220L450 200L420 200L420 190L430 190L430 180L450 180L450 170L430 170L430 160L440 160L440 140L450 140L450 120L420 120L420 140L430 140L430 160L420 160L420 150L410 150L410 130L400 130L400 120L370 120L370 80L350 80L350 70L340 70L340 80L350 80L350 90L340 90L340 120L330 120L330 130L320 130L320 120L310 120L310 100L320 100L320 110L330 110L330 100L320 100L320 90L310 90L310 100L300 100L300 90L290 90L290 80L280 80L280 70L270 70L270 80L260 80L260 110L270 110L270 120L240 120L240 110L250 110L250 100L240 100L240 110L230 110L230 90L240 90L240 80L250 80L250 70L260 70L260 60L280 60L280 50L270 50L270 40L220 40L220 50L250 50L250 70L240 70L240 80L220 80L220 70L210 70L210 80L200 80L200 70L190 70L190 50L180 50L180 40L160 40L160 50L170 50L170 70L160 70L160 60L150 60L150 40L120 40M290 40L290 70L300 70L300 80L310 80L310 70L300 70L300 60L320 60L320 70L330 70L330 60L320 60L320 50L330 50L330 40L320 40L320 50L300 50L300 40L290 40M340 40L340 60L350 60L350 50L370 50L370 40L340 40M380 40L380 110L450 110L450 40L380 40z"/>
<path style="fill:#ffffff; stroke:none;" d="M50 50L50 100L100 100L100 50L50 50M390 50L390 100L440 100L440 50L390 50z"/>
<path style="fill:#010101; stroke:none;" d="M60 60L60 90L90 90L90 60L60 60z"/>
<path style="fill:#ffffff; stroke:none;" d="M130 60L130 70L140 70L140 90L150 90L150 80L160 80L160 90L180 90L180 100L170 100L170 110L180 110L180 120L170 120L170 130L160 130L160 120L140 120L140 100L130 100L130 120L140 120L140 130L160 130L160 140L110 140L110 130L100 130L100 140L110 140L110 150L100 150L100 160L90 160L90 150L70 150L70 170L90 170L90 180L80 180L80 190L70 190L70 180L60 180L60 190L70 190L70 210L90 210L90 220L110 220L110 230L100 230L100 240L130 240L130 230L150 230L150 240L140 240L140 260L150 260L150 250L160 250L160 260L170 260L170 240L180 240L180 230L190 230L190 220L220 220L220 230L200 230L200 250L190 250L190 260L200 260L200 280L210 280L210 290L220 290L220 280L230 280L230 300L220 300L220 310L210 310L210 300L200 300L200 290L190 290L190 310L180 310L180 320L170 320L170 310L150 310L150 330L160 330L160 340L170 340L170 330L180 330L180 340L200 340L200 330L180 330L180 320L220 320L220 330L240 330L240 320L260 320L260 330L250 330L250 340L260 340L260 350L240 350L240 360L250 360L250 380L230 380L230 390L240 390L240 400L260 400L260 370L280 370L280 360L270 360L270 340L260 340L260 330L270 330L270 310L280 310L280 320L300 320L300 310L290 310L290 300L270 300L270 290L310 290L310 300L320 300L320 290L310 290L310 280L280 280L280 270L270 270L270 290L260 290L260 300L250 300L250 310L240 310L240 320L220 320L220 310L230 310L230 300L240 300L240 280L250 280L250 270L260 270L260 260L270 260L270 250L280 250L280 260L290 260L290 270L300 270L300 260L290 260L290 250L310 250L310 260L320 260L320 250L330 250L330 280L340 280L340 290L330 290L330 310L310 310L310 320L320 320L320 330L330 330L330 320L340 320L340 330L350 330L350 350L340 350L340 340L300 340L300 360L290 360L290 370L300 370L300 380L330 380L330 390L310 390L310 400L300 400L300 390L280 390L280 400L300 400L300 430L310 430L310 420L320 420L320 410L310 410L310 400L330 400L330 420L350 420L350 410L360 410L360 390L340 390L340 380L360 380L360 360L370 360L370 350L360 350L360 340L370 340L370 330L380 330L380 340L390 340L390 330L380 330L380 320L370 320L370 330L350 330L350 320L340 320L340 310L360 310L360 300L350 300L350 270L370 270L370 260L350 260L350 270L340 270L340 250L350 250L350 240L320 240L320 230L330 230L330 220L320 220L320 210L330 210L330 200L340 200L340 210L350 210L350 190L340 190L340 180L360 180L360 190L370 190L370 200L380 200L380 210L370 210L370 220L340 220L340 230L370 230L370 220L380 220L380 210L390 210L390 200L380 200L380 190L400 190L400 180L390 180L390 170L410 170L410 180L430 180L430 170L410 170L410 160L400 160L400 150L390 150L390 160L380 160L380 130L370 130L370 160L360 160L360 170L350 170L350 150L360 150L360 140L350 140L350 150L340 150L340 140L320 140L320 130L300 130L300 120L290 120L290 110L300 110L300 100L290 100L290 90L280 90L280 100L270 100L270 110L280 110L280 120L290 120L290 130L280 130L280 140L270 140L270 130L240 130L240 120L230 120L230 110L220 110L220 100L210 100L210 110L220 110L220 120L210 120L210 130L200 130L200 140L190 140L190 150L180 150L180 140L170 140L170 130L190 130L190 120L200 120L200 100L190 100L190 90L200 90L200 80L190 80L190 90L180 90L180 80L160 80L160 70L150 70L150 60L130 60z"/>
<path style="fill:#010101; stroke:none;" d="M400 60L400 90L430 90L430 60L400 60z"/>
<path style="fill:#ffffff; stroke:none;" d="M350 90L350 110L360 110L360 90L350 90M150 100L150 110L160 110L160 100L150 100z"/>
<path style="fill:#010101; stroke:none;" d="M180 100L180 110L190 110L190 100L180 100M280 100L280 110L290 110L290 100L280 100z"/>
<path style="fill:#ffffff; stroke:none;" d="M340 120L340 130L360 130L360 120L340 120M60 130L60 140L80 140L80 130L60 130z"/>
<path style="fill:#010101; stroke:none;" d="M220 130L220 140L210 140L210 150L200 150L200 160L190 160L190 170L200 170L200 180L210 180L210 190L190 190L190 180L180 180L180 200L170 200L170 190L160 190L160 180L150 180L150 160L160 160L160 170L180 170L180 150L170 150L170 140L160 140L160 150L140 150L140 170L130 170L130 160L120 160L120 150L110 150L110 160L100 160L100 170L110 170L110 160L120 160L120 170L130 170L130 180L120 180L120 210L110 210L110 200L100 200L100 210L110 210L110 220L120 220L120 210L130 210L130 220L160 220L160 240L170 240L170 220L180 220L180 200L200 200L200 210L210 210L210 190L220 190L220 220L230 220L230 240L220 240L220 250L230 250L230 260L220 260L220 270L210 270L210 280L220 280L220 270L250 270L250 260L260 260L260 250L230 250L230 240L240 240L240 220L250 220L250 230L260 230L260 220L250 220L250 210L240 210L240 220L230 220L230 190L250 190L250 170L270 170L270 190L260 190L260 210L270 210L270 240L280 240L280 250L290 250L290 240L300 240L300 230L320 230L320 220L280 220L280 200L290 200L290 210L300 210L300 200L290 200L290 170L280 170L280 160L270 160L270 140L250 140L250 150L260 150L260 160L240 160L240 180L230 180L230 190L220 190L220 180L210 180L210 150L240 150L240 140L230 140L230 130L220 130M290 130L290 140L280 140L280 150L290 150L290 160L300 160L300 150L290 150L290 140L300 140L300 130L290 130M310 140L310 170L300 170L300 190L310 190L310 210L320 210L320 190L330 190L330 180L320 180L320 170L340 170L340 160L320 160L320 140L310 140z"/>
<path style="fill:#ffffff; stroke:none;" d="M160 150L160 160L170 160L170 150L160 150z"/>
<path style="fill:#010101; stroke:none;" d="M40 160L40 170L50 170L50 160L40 160M370 160L370 170L360 170L360 180L370 180L370 190L380 190L380 160L370 160M100 180L100 190L110 190L110 180L100 180z"/>
<path style="fill:#ffffff; stroke:none;" d="M130 180L130 190L150 190L150 200L130 200L130 210L150 210L150 200L160 200L160 220L170 220L170 200L160 200L160 190L150 190L150 180L130 180M400 200L400 210L420 210L420 200L400 200M280 230L280 240L290 240L290 230L280 230M60 250L60 260L70 260L70 250L60 250M80 250L80 270L60 270L60 300L80 300L80 280L90 280L90 290L100 290L100 300L90 300L90 320L110 320L110 330L100 330L100 340L110 340L110 330L120 330L120 310L100 310L100 300L120 300L120 290L130 290L130 300L150 300L150 290L130 290L130 280L140 280L140 270L120 270L120 260L130 260L130 250L120 250L120 260L110 260L110 250L100 250L100 260L110 260L110 270L100 270L100 280L90 280L90 250L80 250z"/>
<path style="fill:#010101; stroke:none;" d="M200 250L200 260L210 260L210 250L200 250z"/>
<path style="fill:#ffffff; stroke:none;" d="M180 270L180 280L170 280L170 290L180 290L180 280L190 280L190 270L180 270z"/>
<path style="fill:#010101; stroke:none;" d="M100 280L100 290L120 290L120 280L100 280M260 300L260 310L270 310L270 300L260 300z"/>
<path style="fill:#ffffff; stroke:none;" d="M390 300L390 320L400 320L400 330L410 330L410 320L400 320L400 300L390 300z"/>
<path style="fill:#010101; stroke:none;" d="M160 320L160 330L170 330L170 320L160 320M40 330L40 370L50 370L50 330L40 330z"/>
<path style="fill:#ffffff; stroke:none;" d="M280 330L280 340L290 340L290 330L280 330M410 340L410 350L420 350L420 360L410 360L410 370L420 370L420 360L430 360L430 370L440 370L440 360L430 360L430 350L420 350L420 340L410 340M170 350L170 370L180 370L180 380L190 380L190 390L200 390L200 380L210 380L210 390L220 390L220 380L210 380L210 360L220 360L220 370L230 370L230 360L220 360L220 350L200 350L200 360L190 360L190 350L170 350z"/>
<path style="fill:#010101; stroke:none;" d="M320 350L320 360L330 360L330 370L340 370L340 360L330 360L330 350L320 350z"/>
<path style="fill:#ffffff; stroke:none;" d="M370 370L370 400L400 400L400 370L370 370z"/>
<path style="fill:#010101; stroke:none;" d="M40 380L40 450L110 450L110 380L40 380M380 380L380 390L390 390L390 380L380 380z"/>
<path style="fill:#ffffff; stroke:none;" d="M50 390L50 440L100 440L100 390L50 390z"/>
<path style="fill:#010101; stroke:none;" d="M60 400L60 430L90 430L90 400L60 400z"/>
<path style="fill:#ffffff; stroke:none;" d="M200 400L200 410L210 410L210 400L200 400z"/>
<path style="fill:#010101; stroke:none;" d="M340 400L340 410L350 410L350 400L340 400z"/>
<path style="fill:#ffffff; stroke:none;" d="M380 410L380 420L390 420L390 410L380 410M400 410L400 420L420 420L420 440L430 440L430 420L440 420L440 410L430 410L430 420L420 420L420 410L400 410z"/>
<path style="fill:#010101; stroke:none;" d="M170 430L170 440L160 440L160 450L180 450L180 430L170 430z"/>
<path style="fill:#ffffff; stroke:none;" d="M370 430L370 440L380 440L380 430L370 430M390 430L390 440L400 440L400 430L390 430z"/>
</svg>
